# AST/ASF file generated using VICON BodyLanguage
# -----------------------------------------------
:version 1.10
:name VICON
:units
  mass 1.0
  length 0.45
  angle deg
:documentation
   .ast/.asf automatically generated from VICON data using
   VICON BodyBuilder and BodyLanguage model FoxedUp or BRILLIANT.MOD
:root
   order TX TY TZ RX RY RZ
   axis XYZ
   position 0 0 0  
   orientation 0 0 0 
:bonedata
  begin
     id 1 
     name lhipjoint
     direction 0.575328 -0.747301 0.332475 
     length 2.40933 
     axis 0 0 0  XYZ
  end
  begin
     id 2 
     name lfemur
     direction 0.34202 -0.939693 0  
     length 7.31453  
     axis 0 0 20  XYZ
    dof rx ry rz
    limits (-160.0 20.0)
           (-70.0 70.0)
           (-60.0 70.0)
  end
  begin
     id 3 
     name ltibia
     direction 0.34202 -0.939693 0   
     length 7.82185   
     axis 0 0 20   XYZ
    dof rx
    limits (-10.0 170.0)
  end
  begin
     id 4 
     name lfoot
     direction 0.0795993 -0.218697 0.972541   
     length 2.19173   
     axis -90 7.62852e-016 20   XYZ
    dof rx rz
    limits (-45.0 90.0)
           (-70.0 20.0)
  end
  begin
     id 5 
     name ltoes
     direction 1.53537e-011 -4.21894e-011 1   
     length 1.10023   
     axis -90 7.62852e-016 20   XYZ
    dof rx
    limits (-90.0 20.0)
  end
  begin
     id 6 
     name rhipjoint
     direction -0.513884 -0.783789 0.348708   
     length 2.29716  
     axis 0 0 0  XYZ 
  end
  begin
     id 7 
     name rfemur
     direction -0.34202 -0.939693 0   
     length 7.59573   
     axis 0 0 -20   XYZ
    dof rx ry rz
    limits (-160.0 20.0)
           (-70.0 70.0)
           (-70.0 60.0)
  end
  begin
     id 8 
     name rtibia
     direction -0.34202 -0.939693 0   
     length 7.66402   
     axis 0 0 -20   XYZ
    dof rx
    limits (-10.0 170.0)
 end
 begin
     id 9 
     name rfoot
     direction -0.137793 -0.378584 0.915253   
     length 2.27056  
     axis -90 -7.62852e-016 -20   XYZ
    dof rx rz
    limits (-45.0 90.0)
           (-20.0 70.0)
  end
  begin
     id 10 
     name rtoes
     direction -1.53493e-011 -4.22159e-011 1   
     length 1.11766   
     axis -90 -7.62852e-016 -20   XYZ
    dof rx
    limits (-90.0 20.0)
  end
  begin
     id 11 
     name lowerback
     direction -0.00732775 0.998356 -0.05685   
     length 2.16513   
     axis 0 0 0   XYZ
    dof rx ry rz
    limits (-20.0 45.0)
           (-30.0 30.0)
           (-30.0 30.0)
  end
  begin
     id 12 
     name upperback
     direction 0.0218081 0.999627 -0.0164647   
     length 2.16755   
     axis 0 0 0   XYZ
    dof rx ry rz
    limits (-20.0 45.0)
           (-30.0 30.0)
           (-30.0 30.0)
  end
  begin
     id 13 
     name thorax
     direction 0.02365 0.999661 0.0108914   
     length 2.16932   
     axis 0 0 0   XYZ
    dof rx ry rz
    limits (-20.0 45.0)
           (-30.0 30.0)
           (-30.0 30.0)
  end
  begin
     id 14 
     name lowerneck
     direction -0.0523929 0.978385 0.200044   
     length 1.63877   
     axis 0 0 0   XYZ
    dof rx ry rz
    limits (-20.0 45.0)
           (-30.0 30.0)
           (-30.0 30.0)
  end
  begin
     id 15 
     name upperneck
     direction 0.0448674 0.981321 -0.187074   
     length 1.69014   
     axis 0 0 0   XYZ
    dof rx ry rz
    limits (-20.0 45.0)
           (-30.0 30.0)
           (-30.0 30.0)
  end
  begin
     id 16
     name head
     direction 0.0199089 0.996118 -0.0857429  
     length 1.70094  
     axis 0 0 0   XYZ
    dof rx ry rz
    limits (-20.0 45.0)
           (-30.0 30.0)
           (-30.0 30.0)
  end
  begin
     id 17 
     name lclavicle
     direction 0.940366 0.30191 -0.156722  
     length 3.37521  
     axis 0 0 0   XYZ
    dof ry rz
    limits (-20.0 10.0)
           (0.0 20.0)
  end
  begin
     id 18 
     name lhumerus
     direction 1 -4.4897e-011 -1.7911e-027   
     length 5.25287   
     axis 180 -30 -90   XYZ
    dof rx ry rz
    limits (-60.0 90.0)
           (-90.0 90.0)
           (-90.0 90.0)
  end
  begin
     id 19
     name lradius
     direction 1 -4.48951e-011 1.04424e-027   
     length 3.51014   
     axis 180 -30 -90   XYZ
    dof rx
    limits (-10.0 170.0)
  end
  begin
     id 20
     name lwrist
     direction 1 -4.48997e-011 -9.5942e-028   
     length 1.75507   
     axis 8.48502e-016 90 90   XYZ
    dof ry
    limits (-180.0 0.0)
 end
  begin
     id 21 
     name lhand
     direction 1 -4.48831e-011 -1.90777e-027   
     length 0.706179   
     axis 1.22306e-015 90 90   XYZ
    dof rx rz
    limits (-90.0 90.0)
           (-45.0 45.0)
  end
  begin
     id 22 
     name lfingers
     direction 1 -4.49108e-011 -3.85244e-027   
     length 0.569339   
     axis 2.44611e-015 90 90   XYZ
    dof rx
    limits (0.0 90.0)
  end
  begin
     id 23
     name lthumb
     direction 0.707107 -6.34953e-011 0.707107   
     length 0.817461   
     axis -90 45 -1.62303e-014   XYZ
    dof rx rz
    limits (-45.0 45.0)
           (-45.0 45.0)
  end
  begin
     id 24 
     name rclavicle
     direction -0.905329 0.382405 -0.184787   
     length 3.30787  
     axis 0 0 0   XYZ 
    dof ry rz
    limits (-10.0 20.0)
           (-20.0 0.0)
  end
  begin
     id 25 
     name rhumerus
     direction -1 -4.48953e-011 -9.15316e-029  
     length 5.28721   
     axis 180 30 90   XYZ
    dof rx ry rz
    limits (-90.0 60.0)
           (-90.0 90.0)
           (-90.0 90.0)
  end
  begin
     id 26 
     name rradius
     direction -1 -4.48987e-011 9.37824e-028   
     length 3.50544   
     axis 180 30 90   XYZ
    dof rx
    limits (-10.0 170.0)
  end
  begin
     id 27 
     name rwrist
     direction -1 -4.48967e-011 -9.58414e-028   
     length 1.75272   
     axis 8.48502e-016 -90 -90   XYZ
    dof ry
    limits (-180.0 0.0)
  end
  begin
     id 28
     name rhand
     direction -1 -4.48904e-011 -1.91266e-027   
     length 0.884996   
     axis 1.22306e-015 -90 -90   XYZ
    dof rx rz
    limits (-90.0 90.0)
           (-45.0 45.0)
  end
  begin
     id 29
     name rfingers
     direction -1 -4.4909e-011 -3.85015e-027   
     length 0.713507   
     axis 2.44611e-015 -90 -90   XYZ
    dof rx
    limits (0.0 90.0)
  end
  begin
     id 30
     name rthumb
     direction -0.707107 -6.34853e-011 0.707107   
     length 1.02446   
     axis -90 -45 1.62303e-014   XYZ
    dof rx rz
    limits (-45.0 45.0)
           (-45.0 45.0)
  end
:hierarchy
  begin
    root lhipjoint rhipjoint lowerback
    lhipjoint lfemur
    lfemur ltibia
    ltibia lfoot
    lfoot ltoes
    rhipjoint rfemur
    rfemur rtibia
    rtibia rfoot
    rfoot rtoes
    lowerback upperback
    upperback thorax
    thorax lowerneck lclavicle rclavicle
    lowerneck upperneck
    upperneck head
    lclavicle lhumerus
    lhumerus lradius
    lradius lwrist
    lwrist lhand lthumb
    lhand lfingers
    rclavicle rhumerus
    rhumerus rradius
    rradius rwrist
    rwrist rhand rthumb
    rhand rfingers
  end

#!OML:ASF F:\twosubjects\two\Thursday\Session 1\justin.ASF
:FULLY-SPECIFIED
:DEGREES
163
root 7.12458 9.44675 -18.0538 -26.6874 0.565075 -0.808969
lowerback 36.4094 2.27179 -1.61652
upperback 12.5237 2.39552 1.13668
thorax -4.33845 1.09383 1.20575
lowerneck -23.2215 -5.71497 -11.654
upperneck 12.0016 -5.83706 9.95474
head 8.14008 -2.33245 4.45804
rclavicle -7.0817e-015 3.80176e-015
rhumerus -12.1849 9.161 -84.3016
rradius 84.5274
rwrist 10.4353
rhand -8.04267 21.3845
rfingers 7.12502
rthumb 17.8678 -7.81466
lclavicle -7.0817e-015 3.80176e-015
lhumerus -9.77274 -12.2107 85.1734
lradius 80.9603
lwrist -25.9901
lhand -13.2516 30.1519
lfingers 7.12502
lthumb 12.8507 59.7363
rfemur -64.6498 -18.8503 3.91295
rtibia 100.355
rfoot -6.37123 -4.31151
rtoes -3.17109
lfemur -62.7985 19.1924 1.91103
ltibia 95.6024
lfoot -8.08034 -17.812
ltoes -21.0432
164
root 7.12386 9.45222 -18.0566 -26.6588 0.559765 -0.835177
lowerback 36.4582 2.2957 -1.59109
upperback 12.5061 2.43567 1.16567
thorax -4.37617 1.11335 1.20744
lowerneck -23.0093 -5.7114 -11.964
upperneck 11.7585 -5.822 10.3822
head 8.04797 -2.30323 4.65838
rclavicle -1.3623e-014 7.20594e-015
rhumerus -12.2879 9.55774 -84.367
rradius 84.4644
rwrist 8.37271
rhand -9.68997 21.0548
rfingers 7.12502
rthumb 16.2822 -8.28155
lclavicle -1.3623e-014 7.20594e-015
lhumerus -9.73692 -12.2959 85.1735
lradius 80.9391
lwrist -25.9806
lhand -13.262 30.0939
lfingers 7.12502
lthumb 12.8406 59.679
rfemur -64.6548 -18.8093 3.97361
rtibia 100.322
rfoot -6.29828 -4.35479
rtoes -2.91171
lfemur -62.9685 19.2056 1.91778
ltibia 95.7196
lfoot -7.59393 -17.8148
ltoes -19.002
165
root 7.12122 9.45598 -18.0587 -26.7361 0.62631 -0.711585
lowerback 36.6271 2.34326 -1.72353
upperback 12.4587 2.44417 1.13488
thorax -4.48762 1.11555 1.2362
lowerneck -22.9509 -5.70426 -12.0235
upperneck 11.7803 -5.81341 10.444
head 8.04893 -2.29759 4.69158
rclavicle -1.87852e-014 7.72775e-015
rhumerus -12.4048 10.0395 -84.498
rradius 84.137
rwrist 5.79969
rhand -11.4183 21.4111
rfingers 7.12502
rthumb 14.6175 -8.05376
lclavicle -1.87852e-014 7.72775e-015
lhumerus -9.82927 -12.3618 85.1713
lradius 80.9602
lwrist -25.9757
lhand -13.2818 30.3542
lfingers 7.12502
lthumb 12.8216 59.9405
rfemur -64.5234 -18.7506 3.78288
rtibia 100.312
rfoot -6.37473 -4.38412
rtoes -2.53255
lfemur -62.9199 19.1467 1.77267
ltibia 95.7647
lfoot -7.69897 -17.755
ltoes -19.6136
166
root 7.11918 9.45343 -18.054 -26.855 0.573083 -0.725432
lowerback 36.7366 2.34601 -1.69475
upperback 12.4541 2.45223 1.10604
thorax -4.52743 1.12088 1.18554
lowerneck -22.8791 -5.6666 -11.8308
upperneck 11.784 -5.78836 10.2101
head 8.02059 -2.30158 4.58245
rclavicle -1.02747e-014 3.47873e-016
rhumerus -12.3751 9.63248 -84.4736
rradius 84.3055
rwrist 7.76598
rhand -10.548 21.3234
rfingers 7.12502
rthumb 15.4559 -8.07869
lclavicle -1.02747e-014 3.47873e-016
lhumerus -9.93104 -12.4059 85.1226
lradius 80.9829
lwrist -25.8785
lhand -13.4645 30.4229
lfingers 7.12502
lthumb 12.6454 60.0201
rfemur -64.4011 -18.6829 3.79369
rtibia 100.346
rfoot -6.53009 -4.41195
rtoes -2.50939
lfemur -62.7754 19.2371 1.87469
ltibia 95.7809
lfoot -7.84159 -17.8423
ltoes -20.1211
167
root 7.11914 9.45309 -18.0479 -26.8425 0.398409 -0.951172
lowerback 36.6665 2.3132 -1.46507
upperback 12.4757 2.4951 1.16351
thorax -4.47761 1.14508 1.11346
lowerneck -22.6881 -5.61808 -11.6854
upperneck 11.5632 -5.73912 10.0122
head 7.89779 -2.29562 4.49536
rclavicle 2.64632e-015 -3.52843e-015
rhumerus -12.2829 8.93064 -84.3476
rradius 84.5946
rwrist 10.8574
rhand -9.11274 21.6803
rfingers 7.12502
rthumb 16.8379 -7.60967
lclavicle 2.64632e-015 -3.52843e-015
lhumerus -9.93616 -12.414 85.1281
lradius 80.9695
lwrist -25.7932
lhand -13.6781 30.4618
lfingers 7.12502
lthumb 12.4395 60.0716
rfemur -64.4427 -18.5597 4.11584
rtibia 100.379
rfoot -6.45861 -4.48039
rtoes -2.66746
lfemur -62.7108 19.4136 2.21277
ltibia 95.719
lfoot -8.22948 -18.0051
ltoes -21.9264
168
root 7.11944 9.45292 -18.0457 -26.7231 0.459789 -0.922493
lowerback 36.56 2.34333 -1.53588
upperback 12.4908 2.5145 1.20627
thorax -4.43013 1.15154 1.19107
lowerneck -22.6057 -5.62233 -11.7089
upperneck 11.3628 -5.73494 10.0179
head 7.81782 -2.29605 4.49992
rclavicle -4.13721e-015 -9.93923e-016
rhumerus -12.1749 8.31946 -84.1831
rradius 84.8569
rwrist 13.3192
rhand -7.31809 22
rfingers 7.12502
rthumb 18.5649 -7.13414
lclavicle -4.13721e-015 -9.93923e-016
lhumerus -9.84372 -12.4592 85.1922
lradius 80.9326
lwrist -25.8101
lhand -13.5793 30.2423
lfingers 7.12502
lthumb 12.5347 59.8463
rfemur -64.6082 -18.6163 4.07801
rtibia 100.406
rfoot -6.36468 -4.47938
rtoes -3.33624
lfemur -62.7107 19.3439 2.12264
ltibia 95.5727
lfoot -8.55299 -17.9652
ltoes -23.6794
169
root 7.1185 9.4586 -18.0521 -26.6741 0.610551 -0.834292
lowerback 36.6003 2.36698 -1.60085
upperback 12.4945 2.52038 1.17215
thorax -4.44005 1.1548 1.18605
lowerneck -22.72 -5.65773 -11.5568
upperneck 11.3202 -5.80257 9.95285
head 7.82307 -2.32421 4.44173
rclavicle -5.77718e-015 2.10463e-014
rhumerus -12.0593 7.99873 -84.1071
rradius 84.9129
rwrist 14.0653
rhand -6.29747 21.9516
rfingers 7.12502
rthumb 19.5464 -7.0858
lclavicle -5.77718e-015 2.10463e-014
lhumerus -9.73258 -12.6994 85.1827
lradius 80.8809
lwrist -25.5667
lhand -13.7862 29.8296
lfingers 7.12502
lthumb 12.3353 59.4457
rfemur -64.5865 -18.7087 3.92908
rtibia 100.35
rfoot -6.36198 -4.50091
rtoes -3.73778
lfemur -62.7566 19.1997 1.91445
ltibia 95.5118
lfoot -8.09604 -17.8806
ltoes -21.4805
170
root 7.11968 9.46573 -18.0586 -26.6178 0.61976 -0.836324
lowerback 36.5937 2.34903 -1.53453
upperback 12.5 2.51708 1.11816
thorax -4.42678 1.15708 1.09634
lowerneck -22.8646 -5.6418 -11.2822
upperneck 11.3414 -5.81951 9.77523
head 7.84067 -2.33295 4.33252
rclavicle 3.5657e-015 1.68967e-015
rhumerus -11.9719 7.91165 -84.1135
rradius 84.8744
rwrist 14.1092
rhand -6.9558 22.1838
rfingers 7.12502
rthumb 18.9133 -6.91664
lclavicle 3.5657e-015 1.68967e-015
lhumerus -9.63646 -12.8543 85.1079
lradius 80.8399
lwrist -25.2912
lhand -14.0879 29.7745
lfingers 7.12502
lthumb 12.0443 59.4079
rfemur -64.5675 -18.7138 3.94737
rtibia 100.278
rfoot -6.31466 -4.53299
rtoes -3.27505
lfemur -62.87 19.1974 1.85851
ltibia 95.5372
lfoot -7.6506 -17.8276
ltoes -19.3241
171
root 7.12232 9.45803 -18.0502 -26.5148 0.603606 -0.704288
lowerback 36.4892 2.37644 -1.72929
upperback 12.4656 2.48508 1.11701
thorax -4.43411 1.13607 1.20942
lowerneck -22.7591 -5.54166 -11.2161
upperneck 11.3342 -5.68925 9.63087
head 7.79925 -2.28497 4.2913
rclavicle -2.04003e-014 3.2054e-015
rhumerus -12.0754 8.07693 -84.1415
rradius 84.9253
rwrist 14.1342
rhand -7.56969 22.5105
rfingers 7.12502
rthumb 18.3228 -6.6465
lclavicle -2.04003e-014 3.2054e-015
lhumerus -9.72071 -12.6361 85.1266
lradius 80.9156
lwrist -25.5081
lhand -13.7719 29.7889
lfingers 7.12502
lthumb 12.3491 59.4042
rfemur -64.7751 -18.7729 3.84427
rtibia 100.332
rfoot -6.27532 -4.43564
rtoes -2.91742
lfemur -62.9775 19.2788 1.69553
ltibia 95.5628
lfoot -7.72886 -17.7886
ltoes -19.9654
172
root 7.12105 9.45288 -18.0423 -26.5114 0.599212 -0.708233
lowerback 36.4627 2.38791 -1.84546
upperback 12.4458 2.46446 1.18253
thorax -4.45305 1.12034 1.34607
lowerneck -22.6206 -5.48544 -11.2808
upperneck 11.3194 -5.60218 9.60224
head 7.76292 -2.25303 4.30508
rclavicle -1.48902e-014 8.74653e-015
rhumerus -12.1467 8.23346 -84.1541
rradius 84.9567
rwrist 14.1302
rhand -7.48544 22.5353
rfingers 7.12502
rthumb 18.4039 -6.61407
lclavicle -1.48902e-014 8.74653e-015
lhumerus -9.85482 -12.4215 85.1907
lradius 81.0266
lwrist -25.7413
lhand -13.502 29.8137
lfingers 7.12502
lthumb 12.6093 59.4132
rfemur -64.8184 -18.7725 3.84651
rtibia 100.382
rfoot -6.28882 -4.44008
rtoes -2.80609
lfemur -63.048 19.3431 1.68867
ltibia 95.6138
lfoot -7.92971 -17.8638
ltoes -20.9675
173
root 7.11886 9.46111 -18.0484 -26.5653 0.563134 -0.928235
lowerback 36.5181 2.33446 -1.61866
upperback 12.4687 2.47824 1.22635
thorax -4.44272 1.13138 1.26841
lowerneck -22.76 -5.51329 -11.2174
upperneck 11.4156 -5.64691 9.58404
head 7.82014 -2.2696 4.28224
rclavicle -1.19457e-014 1.73937e-015
rhumerus -12.1011 8.16344 -84.1673
rradius 84.9524
rwrist 14.1701
rhand -7.50001 22.4788
rfingers 7.12502
rthumb 18.3899 -6.67194
lclavicle -1.19457e-014 1.73937e-015
lhumerus -9.81458 -12.4881 85.2312
lradius 80.9315
lwrist -25.5783
lhand -14.0184 29.8227
lfingers 7.12502
lthumb 12.1114 59.4521
rfemur -64.6733 -18.6772 4.06477
rtibia 100.341
rfoot -6.43078 -4.61036
rtoes -2.33467
lfemur -63.0151 19.3209 1.94468
ltibia 95.5891
lfoot -8.32222 -17.9856
ltoes -22.5057
